<svg xmlns="http://www.w3.org/2000/svg" version="1.1" xmlns:xlink="http://www.w3.org/1999/xlink" xmlns:svgjs="http://svgjs.dev/svgjs" width="1000" height="1000" viewBox="0 0 1000 1000"><rect width="1000" height="1000" fill="#000000"></rect><g transform="matrix(0.7,0,0,0.7,150,106.25)"><svg viewBox="0 0 320 360" data-background-color="#ffffff" preserveAspectRatio="xMidYMid meet" height="1125" width="1000" xmlns="http://www.w3.org/2000/svg" xmlns:xlink="http://www.w3.org/1999/xlink"><g id="tight-bounds" transform="matrix(1,0,0,1,0,0)"><svg viewBox="0 0 320 360" height="360" width="320"><g><svg></svg></g><g><svg viewBox="0 0 320 360" height="360" width="320"><g><path xmlns="http://www.w3.org/2000/svg" d="M219.58 41.008c0.707 0 6.365 2.829 9.547 3.89-1.061 0.354-3.536-0.707-6.365-1.768 0.707 0 2.122 0.354 3.536 1.06-0.707-0.707-6.011-2.475-6.718-3.182M166.895 30.047c1.061-0.354 13.436 1.414 19.094 1.768 0.354-0.354-0.707-0.354-2.122-0.707 1.768-0.354 5.304 0.707 7.779 1.06-7.425 0.354-15.558-1.768-22.629-1.06-2.475 0-0.707-0.707-2.122-1.061M156.641 30.047c6.365 0 11.315 0 2.121 0.707-1.061-0.354-2.475-0.354-2.121-0.707M256.707 59.395c0.707 0 3.536 3.182 4.95 4.243-0.354 0.354-3.182-2.475-4.596-3.536 0.354 0.354 0 0-0.354-0.707M249.635 54.798c-2.829-2.475-3.889-2.475-4.243-3.889 2.475 1.414 4.243 2.829 4.243 3.889M204.022 32.522c0.354-0.354 1.061 0.354 2.829 0.707-2.122-0.354-1.768 0-1.061 0.707-2.475-0.354-3.182-0.707-2.475-1.414 1.414 0.707 1.768 0.354 0.707 0M103.602 36.765c0-0.354 1.414-1.061 2.475-1.414-1.061 0.707-0.707 1.061 1.061 0.353 0 0.354-2.122 1.061-3.536 1.768 0.707-0.354 1.414-1.414 0-0.707M211.094 28.986c-1.061 0.354-4.95-1.768-8.84-2.475-2.122-0.707 8.486 1.768 8.84 2.475M2.475 203.66c2.122 8.84 0.707 8.486 0 0M2.829 150.621c0.354-1.414 0.707-5.304 1.06-4.95-1.061 8.486-2.829 12.376-3.182 18.74 1.061-5.657-0.354 3.182-0.707 5.304 0.354 2.829 0.354-1.768 1.061-1.06 0.707 1.061-1.414 15.912-0.707 7.779-0.707 7.425 0 15.558 1.414 17.679-1.768 11.315 7.072 36.773 8.84 42.077 0.354 0.354 0-1.768 0.707-0.353 0.707 4.597 3.889 7.779 4.95 12.729 1.061 1.414 5.304 9.193 6.011 10.962 1.414 2.829 2.122 2.475 3.536 5.303 4.243 8.133 10.961 15.912 17.326 23.337 20.508 24.044 51.978 43.845 86.984 50.918 35.006 7.425 71.779 2.122 100.419-11.669 1.768-1.061 1.414-1.414 3.536-2.122 9.901-3.182 21.923-13.436 28.641-17.326 3.182-3.536 11.669-9.547 12.73-13.082 6.011-4.95 12.022-13.083 15.204-18.387 1.768-2.829 3.182-2.829 3.889-4.597-0.354 0 5.657-7.425 7.426-11.668-0.707 0-1.768 2.122-1.768 0 12.729-24.398 19.801-57.282 15.911-79.912 0.707 27.934-6.365 59.05-19.801 78.851-6.011 12.729-18.387 26.519-29.701 36.42-1.768 1.768-3.536 3.889-5.658 5.304-6.718 5.657-14.144 10.254-21.922 14.497-18.387 10.254-38.895 19.094-62.94 19.447 41.37-3.536 78.497-24.398 99.006-49.856-15.558 15.204-22.276 21.215-39.602 30.055-1.414 2.475-13.083 7.425-20.862 9.547 4.597-2.122 14.144-5.657 17.326-8.486-25.812 12.376-54.453 19.448-81.326 15.558 10.254 0 24.751 0.354 38.541-2.121 2.122-0.707 3.182-1.414 5.658-1.768 26.873-6.011 52.685-19.094 71.072-37.481-10.608 9.547-26.519 20.862-36.774 24.398 9.547-5.304 26.873-15.558 32.53-23.337-11.315 11.315-32.53 22.63-45.966 27.58-2.122 0.354 1.414-1.414-2.122 0-4.243 1.061-2.475 1.061-3.536 1.768-16.265 4.597-35.006 8.486-50.563 7.072-2.829-0.354-3.889-1.061-6.365-1.061-2.829-0.354-5.304-0.354-8.486-0.354-12.376-1.414-25.812-6.365-35.713-10.607-5.304-2.475-10.608-4.243-15.912-7.426-4.243-2.475-7.779-5.304-11.314-8.132-13.436-9.901-24.751-19.801-35.36-33.945-19.094-26.519-28.994-59.757-27.58-92.641 1.414-32.884 14.497-65.061 35.359-88.752-1.061 1.061 1.414-2.475 3.536-4.596 0 0.707-0.354 1.768 2.122-0.707 2.122-2.475-0.707-0.707 0.353-2.122 21.923-24.044 60.111-43.492 99.36-44.199 1.414-1.061 3.889-2.475 6.718-1.768 0 0.354-1.768 0.354-1.768 0.354 3.889-0.354 7.425-0.354 9.193 0.353 0.354-0.354-1.414-0.707 0-0.707 2.475 0.707 3.182 0 4.597 0.707-1.061 0-2.122 0-2.829 0.354 8.84 0 14.497 2.122 23.337 2.829-4.597-1.061-5.657-1.061-9.193-2.122 3.889 0.707 5.657 1.414 7.425 1.061-0.707 0-0.354-1.061 0.354-0.707 7.072 1.768 7.779 2.475 15.204 4.95 0.707-0.707-3.182-1.061-4.243-2.122 7.072 2.475 13.436 4.243 17.68 7.072-1.414-1.061-5.657-2.475-8.84-3.889-0.354 0.354 1.061 0.707 1.414 1.414-3.536-1.768-8.486-3.536-13.436-4.243 4.243 1.061 7.072 2.475 8.84 3.182-3.889-0.707-8.84-3.182-14.498-4.243 9.193 2.829 26.519 9.193 37.127 14.851-3.889-2.475-8.486-4.243-10.961-5.657 2.122 0.354 4.597 1.768 4.597 1.06 2.475 1.061 5.657 3.536 7.425 3.89-3.182-2.122-9.547-5.304-11.668-6.365 26.519 12.022 50.21 32.177 65.414 57.989 1.414 2.475 3.536 8.133 5.304 8.84-0.354-1.768-1.768-2.829-3.182-5.657 0.707 0 0.707-1.061 0-2.122-1.414-1.768 0 1.414-1.415-0.354-6.365-11.669-14.144-21.923-26.165-33.237 6.718 6.365 1.768 1.768 0.353-0.354 9.193 8.133 19.801 21.923 24.398 28.995-0.707-1.061-1.061-1.768-0.707-1.768 8.486 14.497 13.79 27.58 19.094 46.32 0.354 0.354 0-1.414 0.707-0.353 3.536 14.851 4.597 27.227 4.243 38.541 2.829-19.094-3.536-48.796-14.851-72.133-1.414-2.829-1.414-0.707-2.829-3.889 0-1.061-1.061-3.182-1.768-4.597-14.144-23.337-31.47-39.956-51.978-53.038 1.414 0.707 4.243 2.829 4.244 2.475-38.188-25.105-82.387-28.641-118.807-20.862-2.475 1.061-3.536 2.122-6.365 3.536 5.304-1.768 8.486-2.122 13.437-3.183 1.061-1.061-4.597 0.354-2.122-0.707 0.354 0.354 4.95-0.707 6.011-0.353 0 0.354-1.414 0.707-1.768 1.06 11.669-2.475 23.691-2.829 33.945-2.121-6.011 0.354-16.972-0.707-20.508 1.061 3.536-0.354 8.486-0.707 11.668-0.354-4.243 0-12.022 0.354-15.558 0.707-0.354-0.354 5.657-1.061 1.768-1.06-1.768 0.354-4.597 0.354-5.657 1.414-30.409 2.829-60.111 18.74-80.973 37.481-4.243 3.536-9.193 7.425-12.375 11.314-7.779 8.84-12.729 17.68-18.387 25.459 3.536-7.425 11.315-18.74 20.508-28.287 9.193-9.547 19.094-17.68 24.398-21.923 0 1.414 8.486-5.304 11.669-7.425-2.122 1.768 1.414-0.707 2.121-0.354 11.315-6.718 20.508-9.193 30.763-13.083-2.475 0.707-4.597 1.414-4.951 1.061 2.475-0.707 3.889-1.414 3.536-1.768-9.901 2.829-25.459 9.547-37.834 16.972 22.276-15.204 50.564-24.398 78.497-24.751 27.934-0.707 55.16 6.365 76.729 17.68 14.497 6.365 28.287 18.033 39.249 29.348 3.182 2.829 0.707-0.707 5.304 4.243-1.414-0.707-2.475-1.414-0.707 0.707 2.829 3.182-0.707-2.475 3.889 3.182-0.354 0-1.768-1.768-1.768-1.061 12.376 10.961 21.923 30.762 27.58 43.846-1.414-5.304-4.95-12.729-7.779-18.033 8.486 15.558 11.315 24.751 14.851 38.541 1.414 1.061-0.707-4.95 0.707-2.121 0.354 2.122 0.707 8.84 2.122 9.9-1.061-6.718-2.829-14.851-4.243-16.265 1.061 0.707-1.768-8.133-3.536-10.254-0.707-5.657-5.657-15.558-9.901-22.984-15.204-29.702-42.431-54.099-72.839-67.536 0-0.707-1.768-1.414-2.476-2.121-30.055-12.729-66.122-16.265-100.773-8.133-35.006 8.486-67.889 28.641-91.227 57.636 1.061-3.536 9.901-10.254 10.255-13.083-10.254 10.961-21.215 25.459-28.641 41.016-7.779 15.558-12.022 31.47-13.79 43.138" fill="#61777f" fill-rule="nonzero" stroke="none" stroke-width="1" stroke-linecap="butt" stroke-linejoin="miter" stroke-miterlimit="10" stroke-dasharray="" stroke-dashoffset="0" font-family="none" font-weight="none" font-size="none" text-anchor="none" style="mix-blend-mode: normal" data-fill-palette-color="tertiary"></path></g><g transform="matrix(1,0,0,1,48,113.64883682853144)"><svg viewBox="0 0 224 132.7023263429371" height="132.7023263429371" width="224"><g><svg viewBox="0 0 224 132.7023263429371" height="132.7023263429371" width="224"><g transform="matrix(1,0,0,1,0,96.57933883367423)"><svg viewBox="0 0 224 36.122987509262884" height="36.122987509262884" width="224"><g><svg viewBox="0 0 224 36.122987509262884" height="36.122987509262884" width="224"><g><svg viewBox="0 0 224 19.483013376616107" height="19.483013376616107" width="224"><g transform="matrix(1,0,0,1,0,0)"><svg width="224" viewBox="2.759999990463257 -37.650001525878906 436.16998291015625 37.941139221191406" height="19.483013376616107" data-palette-color="#61777f"><path d="M2.76-30.3L2.76-37.01 18.6-37.01 18.6-30.3 14.7-30.3 14.7-6.69 22.75-6.69Q23.07-6.69 23.38-6.87 23.68-7.06 23.91-7.35 24.15-7.64 24.29-7.98 24.44-8.33 24.44-8.64L24.44-8.64 24.44-13.6 32.35-13.6 32.35 0 2.76 0 2.76-6.69 6.59-6.69 6.59-30.3 2.76-30.3ZM35.62-30.32L35.62-37.01 51.46-37.01 51.46-30.32 47.56-30.32 47.56-6.69 51.46-6.69 51.46 0 35.62 0 35.62-6.69 39.45-6.69 39.45-30.32 35.62-30.32ZM89.52 0L82.22 0 82.22-6.35Q80.71-3.69 79.27-2.44 77.83-1.2 76.01-0.44 74.19 0.32 71.14 0.29L71.14 0.29Q69.62 0.27 68.11-0.06 66.6-0.39 65.18-0.99 63.76-1.59 62.41-2.43 61.05-3.27 59.96-4.37L59.96-4.37Q57.25-7.1 55.74-10.71 54.24-14.31 54.24-18.55L54.24-18.55Q54.24-21.17 54.88-23.61 55.51-26.05 56.66-28.17 57.81-30.3 59.43-32.04 61.05-33.79 63.04-35.03 65.03-36.28 67.33-36.96 69.62-37.65 72.14-37.65L72.14-37.65Q75.02-37.65 77.14-36.88 79.27-36.11 81.71-34.01L81.71-34.01 87.18-34.01 87.18-25.76 79.63-25.76Q78.51-27.49 77.52-28.27 76.53-29.05 75.37-29.57 74.21-30.08 72.14-30.08L72.14-30.08Q70.09-30.08 68.33-29.15 66.57-28.22 65.29-26.65 64.01-25.07 63.28-22.94 62.54-20.8 62.54-18.55L62.54-18.55Q62.54-16.33 63.2-14.33 63.86-12.33 65.2-10.73 66.55-9.13 68.33-8.28 70.11-7.42 72.14-7.42L72.14-7.42Q74.73-7.42 76.66-8.94 78.58-10.45 79.44-13.06L79.44-13.06 72.38-13.06 72.38-19.75 89.52-19.75 89.52 0ZM120.11-30.3L120.11-37.01 135.98-37.01 135.98-30.3 132.07-30.3 132.07-6.69 135.98-6.69 135.98 0 120.11 0 120.11-6.69 123.97-6.69 123.97-16.16 107.27-16.16 107.27-6.69 111.17-6.69 111.17 0 95.33 0 95.33-6.69 99.16-6.69 99.16-30.3 95.33-30.3 95.33-37.01 111.17-37.01 111.17-30.3 107.27-30.3 107.27-22.61 123.97-22.61 123.97-30.3 120.11-30.3ZM147.82 0L147.82-6.69 151.65-6.69 151.65-30.54 147.16-30.54 147.16-25.76 139.2-25.76 139.2-37.01 172.87-37.01 172.87-25.76 164.86-25.76 164.86-30.54 159.76-30.54 159.76-6.69 163.66-6.69 163.66 0 147.82 0ZM176.72 0L176.72-6.35 189.51-19.95Q191.17-21.56 192.08-23.17 192.98-24.78 192.98-26.44L192.98-26.44Q192.98-27.15 192.69-27.84 192.39-28.54 191.85-29.09 191.3-29.64 190.5-29.97 189.71-30.3 188.71-30.3L188.71-30.3Q187.51-30.3 186.62-29.92 185.73-29.54 185.13-28.88 184.53-28.22 184.22-27.34 183.9-26.46 183.87-25.49L183.87-25.49 176.53-25.49Q176.53-28.37 177.48-30.63 178.43-32.89 180.1-34.44 181.77-35.99 184.02-36.79 186.27-37.6 188.83-37.6L188.83-37.6Q191.25-37.6 193.43-36.87 195.62-36.13 197.29-34.72 198.96-33.3 199.94-31.23 200.92-29.15 200.92-26.44L200.92-26.44Q200.92-24.27 200.02-22.42 199.13-20.58 197.62-18.9L197.62-18.9 187.07-7.5 200.87-7.5 200.87 0 176.72 0ZM224.18 0L224.18-6.69 227.87-6.69 226.21-12.01 214.83-12.01 213.17-6.69 217.07-6.69 217.07 0 203.04 0 203.04-6.69 205.8-6.69 215.88-37.01 225.67-37.01 235.53-6.69 238.22-6.69 238.22 0 224.18 0ZM220.47-30.3L216.76-18.26 224.23-18.26 220.47-30.3ZM241.54-30.3L241.54-37.01 257.38-37.01 257.38-30.3 253.47-30.3 253.47-6.69 261.53-6.69Q261.85-6.69 262.15-6.87 262.46-7.06 262.69-7.35 262.92-7.64 263.07-7.98 263.21-8.33 263.21-8.64L263.21-8.64 263.21-13.6 271.13-13.6 271.13 0 241.54 0 241.54-6.69 245.37-6.69 245.37-30.3 241.54-30.3ZM274.39 0L274.39-6.69 278.18-6.69 278.18-30.3 274.39-30.3 274.39-37.06 292.44-37.01Q294.95-37.01 297.04-36.12 299.13-35.23 300.64-33.7 302.15-32.18 303-30.14 303.84-28.1 303.84-25.81L303.84-25.81Q303.84-23.12 302.9-21.36 301.96-19.6 300.22-18.53L300.22-18.53Q302.06-17.36 303.12-15.64 304.18-13.92 304.18-11.45L304.18-11.45Q304.18-8.94 303.31-6.84 302.45-4.74 300.94-3.21 299.44-1.68 297.39-0.84 295.34 0 292.97 0L292.97 0 274.39 0ZM292.44-15.31L286.28-15.31 286.28-6.69 292.44-6.69Q293.14-6.69 293.77-7.06 294.39-7.42 294.84-8.02 295.29-8.62 295.56-9.41 295.83-10.21 295.83-11.06L295.83-11.06Q295.83-11.96 295.56-12.73 295.29-13.5 294.83-14.07 294.36-14.65 293.74-14.98 293.12-15.31 292.44-15.31L292.44-15.31ZM292.09-30.3L286.28-30.3 286.28-22 292.09-22Q292.78-22 293.39-22.34 294-22.68 294.45-23.25 294.9-23.83 295.17-24.55 295.44-25.27 295.44-26.05L295.44-26.05Q295.44-26.81 295.17-27.56 294.9-28.32 294.45-28.93 294-29.54 293.39-29.92 292.78-30.3 292.09-30.3L292.09-30.3ZM327.27 0L327.27-6.69 330.96-6.69 329.3-12.01 317.92-12.01 316.26-6.69 320.17-6.69 320.17 0 306.13 0 306.13-6.69 308.89-6.69 318.97-37.01 328.76-37.01 338.62-6.69 341.31-6.69 341.31 0 327.27 0ZM323.56-30.3L319.85-18.26 327.32-18.26 323.56-30.3ZM368.02-30.3L368.02-37.01 382.08-37.01 382.08-30.3 379.08-30.3 379.08 0 370.97 0 355.57-23.93 355.57-6.69 358.67-6.69 358.67 0 344.63 0 344.63-6.69 347.68-6.69 347.68-30.3 344.68-30.3 344.68-37.01 355.86-37.01 371.17-12.77 371.17-30.3 368.02-30.3ZM386.08-30.32L386.08-37.01 401.93-37.01 401.93-30.32 398.02-30.32 398.02-6.69 401.93-6.69 401.93 0 386.08 0 386.08-6.69 389.91-6.69 389.91-30.32 386.08-30.32ZM424.9 0L424.9-6.69 428.58-6.69 426.92-12.01 415.55-12.01 413.89-6.69 417.79-6.69 417.79 0 403.75 0 403.75-6.69 406.51-6.69 416.6-37.01 426.39-37.01 436.25-6.69 438.93-6.69 438.93 0 424.9 0ZM421.19-30.3L417.47-18.26 424.95-18.26 421.19-30.3Z" opacity="1" transform="matrix(1,0,0,1,0,0)" fill="#ffffff" class="undefined-text-0" data-fill-palette-color="primary" id="text-0"></path></svg></g></svg></g><g transform="matrix(1,0,0,1,0,24.08248524251413)"><svg viewBox="0 0 224 12.040502266748755" height="12.040502266748755" width="224"><g transform="matrix(1,0,0,1,0,0)"><svg width="224" viewBox="2.0799999237060547 -38.0099983215332 900.6699829101562 48.409996032714844" height="12.040502266748755" data-palette-color="#61777f"><path d="M19.36-8.98L19.36-8.98Q19.36-11.65 17.92-13.06 16.48-14.48 12.72-15.82 8.96-17.16 6.97-18.64 4.98-20.12 3.99-22.01 3-23.9 3-26.34L3-26.34Q3-30.57 5.82-33.3 8.64-36.04 13.21-36.04L13.21-36.04Q16.33-36.04 18.77-34.63 21.22-33.23 22.53-30.74 23.85-28.25 23.85-25.27L23.85-25.27 19.36-25.27Q19.36-28.56 17.77-30.37 16.19-32.18 13.21-32.18L13.21-32.18Q10.5-32.18 9.01-30.66 7.52-29.15 7.52-26.42L7.52-26.42Q7.52-24.17 9.13-22.66 10.74-21.14 14.11-19.95L14.11-19.95Q19.36-18.21 21.62-15.67 23.88-13.13 23.88-9.03L23.88-9.03Q23.88-4.71 21.07-2.11 18.26 0.49 13.43 0.49L13.43 0.49Q10.33 0.49 7.7-0.87 5.08-2.22 3.58-4.68 2.08-7.13 2.08-10.3L2.08-10.3 6.57-10.3Q6.57-7.01 8.41-5.18 10.25-3.34 13.43-3.34L13.43-3.34Q16.38-3.34 17.87-4.86 19.36-6.37 19.36-8.98ZM43.39-37.5L43.39-23.71Q45.86-26.9 49.69-26.9L49.69-26.9Q56.7-26.9 56.79-17.55L56.79-17.55 56.79 0 52.5 0 52.5-17.36Q52.5-20.46 51.46-21.77 50.42-23.07 48.35-23.07L48.35-23.07Q46.74-23.07 45.45-22 44.17-20.92 43.39-19.19L43.39-19.19 43.39 0 39.07 0 39.07-37.5 43.39-37.5ZM91.25 0L86.76 0Q86.37-0.85 86.2-2.88L86.2-2.88Q83.9 0.49 80.34 0.49L80.34 0.49Q76.75 0.49 74.73-1.53 72.72-3.54 72.72-7.2L72.72-7.2Q72.72-11.23 75.45-13.6 78.19-15.97 82.95-16.02L82.95-16.02 86.12-16.02 86.12-18.82Q86.12-21.19 85.07-22.19 84.02-23.19 81.87-23.19L81.87-23.19Q79.92-23.19 78.7-22.03 77.48-20.87 77.48-19.09L77.48-19.09 73.16-19.09Q73.16-21.12 74.35-22.96 75.55-24.8 77.58-25.85 79.6-26.9 82.09-26.9L82.09-26.9Q86.15-26.9 88.26-24.89 90.37-22.88 90.42-19.02L90.42-19.02 90.42-5.69Q90.44-2.64 91.25-0.39L91.25-0.39 91.25 0ZM81-3.44L81-3.44Q82.58-3.44 84.02-4.32 85.46-5.2 86.12-6.52L86.12-6.52 86.12-12.82 83.68-12.82Q80.6-12.77 78.82-11.44 77.04-10.11 77.04-7.71L77.04-7.71Q77.04-5.47 77.94-4.46 78.85-3.44 81-3.44ZM117.94-26.56L117.97-22.36Q117.06-22.53 116.01-22.53L116.01-22.53Q112.69-22.53 111.37-18.9L111.37-18.9 111.37 0 107.05 0 107.05-26.42 111.25-26.42 111.32-23.73Q113.06-26.9 116.23-26.9L116.23-26.9Q117.26-26.9 117.94-26.56L117.94-26.56ZM136.87-26.42L136.87 0 132.55 0 132.55-26.42 136.87-26.42ZM137.21-33.42L137.21-33.42Q137.21-32.32 136.6-31.59 135.99-30.86 134.74-30.86L134.74-30.86Q133.52-30.86 132.91-31.59 132.3-32.32 132.3-33.42 132.3-34.52 132.91-35.28 133.52-36.04 134.74-36.04 135.97-36.04 136.59-35.27 137.21-34.5 137.21-33.42ZM153.6-26.42L157.68-26.42 157.8-23.56Q160.31-26.9 164.22-26.9L164.22-26.9Q171.23-26.9 171.32-17.55L171.32-17.55 171.32 0 167.03 0 167.03-17.36Q167.03-20.46 165.99-21.77 164.95-23.07 162.88-23.07L162.88-23.07Q161.26-23.07 159.98-22 158.7-20.92 157.92-19.19L157.92-19.19 157.92 0 153.6 0 153.6-26.42ZM186.88-11.47L186.88-14.4Q186.88-20.58 189.13-23.74 191.37-26.9 195.7-26.9L195.7-26.9Q199.72-26.9 201.82-23.46L201.82-23.46 202.04-26.42 205.95-26.42 205.95 0.24Q205.95 5.15 203.43 7.78 200.92 10.4 196.43 10.4L196.43 10.4Q194.48 10.4 192.05 9.44 189.62 8.47 188.4 7.06L188.4 7.06 190.15 4.08Q192.84 6.71 196.09 6.71L196.09 6.71Q201.48 6.71 201.63 0.83L201.63 0.83 201.63-2.61Q199.53 0.49 195.67 0.49L195.67 0.49Q191.57 0.49 189.27-2.6 186.98-5.69 186.88-11.47L186.88-11.47ZM191.2-14.58L191.2-11.94Q191.2-7.5 192.51-5.41 193.82-3.32 196.79-3.32L196.79-3.32Q200.02-3.32 201.63-6.62L201.63-6.62 201.63-19.82Q199.94-23.07 196.84-23.07L196.84-23.07Q193.86-23.07 192.55-20.98 191.23-18.9 191.2-14.58L191.2-14.58ZM245.07-32.81L249.37-32.81 249.37-26.42 253.35-26.42 253.35-22.92 249.37-22.92 249.37-6.54Q249.37-4.98 249.88-4.17 250.4-3.37 251.64-3.37L251.64-3.37Q252.5-3.37 253.38-3.66L253.38-3.66 253.33 0Q251.86 0.49 250.32 0.49L250.32 0.49Q247.76 0.49 246.42-1.34 245.07-3.17 245.07-6.52L245.07-6.52 245.07-22.92 241.05-22.92 241.05-26.42 245.07-26.42 245.07-32.81ZM272.74-37.5L272.74-23.71Q275.21-26.9 279.04-26.9L279.04-26.9Q286.05-26.9 286.15-17.55L286.15-17.55 286.15 0 281.85 0 281.85-17.36Q281.85-20.46 280.81-21.77 279.77-23.07 277.7-23.07L277.7-23.07Q276.09-23.07 274.81-22 273.52-20.92 272.74-19.19L272.74-19.19 272.74 0 268.42 0 268.42-37.5 272.74-37.5ZM311.96 0.49L311.96 0.49Q307.03 0.49 304.39-2.45 301.75-5.4 301.7-11.08L301.7-11.08 301.7-14.28Q301.7-20.19 304.28-23.55 306.86-26.9 311.47-26.9L311.47-26.9Q316.11-26.9 318.4-23.95 320.7-21 320.75-14.75L320.75-14.75 320.75-11.91 306-11.91 306-11.3Q306-7.06 307.6-5.13 309.2-3.2 312.2-3.2L312.2-3.2Q314.11-3.2 315.56-3.92 317.01-4.64 318.28-6.2L318.28-6.2 320.53-3.47Q317.72 0.49 311.96 0.49ZM311.47-23.19L311.47-23.19Q308.78-23.19 307.49-21.35 306.2-19.51 306.03-15.63L306.03-15.63 316.43-15.63 316.43-16.21Q316.26-19.97 315.07-21.58 313.89-23.19 311.47-23.19ZM362.36-35.55L362.36-3.83 376.3-3.83 376.3 0 357.87 0 357.87-35.55 362.36-35.55ZM395.62-26.42L395.62 0 391.3 0 391.3-26.42 395.62-26.42ZM395.96-33.42L395.96-33.42Q395.96-32.32 395.35-31.59 394.74-30.86 393.5-30.86L393.5-30.86Q392.28-30.86 391.67-31.59 391.06-32.32 391.06-33.42 391.06-34.52 391.67-35.28 392.28-36.04 393.5-36.04 394.72-36.04 395.34-35.27 395.96-34.5 395.96-33.42ZM411.5-11.47L411.5-14.4Q411.5-20.58 413.74-23.74 415.99-26.9 420.31-26.9L420.31-26.9Q424.34-26.9 426.44-23.46L426.44-23.46 426.66-26.42 430.57-26.42 430.57 0.24Q430.57 5.15 428.05 7.78 425.54 10.4 421.04 10.4L421.04 10.4Q419.09 10.4 416.66 9.44 414.23 8.47 413.01 7.06L413.01 7.06 414.77 4.08Q417.46 6.71 420.7 6.71L420.7 6.71Q426.1 6.71 426.24 0.83L426.24 0.83 426.24-2.61Q424.14 0.49 420.29 0.49L420.29 0.49Q416.19 0.49 413.89-2.6 411.6-5.69 411.5-11.47L411.5-11.47ZM415.82-14.58L415.82-11.94Q415.82-7.5 417.13-5.41 418.43-3.32 421.41-3.32L421.41-3.32Q424.63-3.32 426.24-6.62L426.24-6.62 426.24-19.82Q424.56-23.07 421.46-23.07L421.46-23.07Q418.48-23.07 417.16-20.98 415.84-18.9 415.82-14.58L415.82-14.58ZM451.25-37.5L451.25-23.71Q453.72-26.9 457.55-26.9L457.55-26.9Q464.56-26.9 464.65-17.55L464.65-17.55 464.65 0 460.36 0 460.36-17.36Q460.36-20.46 459.32-21.77 458.28-23.07 456.21-23.07L456.21-23.07Q454.6-23.07 453.31-22 452.03-20.92 451.25-19.19L451.25-19.19 451.25 0 446.93 0 446.93-37.5 451.25-37.5ZM482.39-32.81L486.68-32.81 486.68-26.42 490.66-26.42 490.66-22.92 486.68-22.92 486.68-6.54Q486.68-4.98 487.2-4.17 487.71-3.37 488.95-3.37L488.95-3.37Q489.81-3.37 490.69-3.66L490.69-3.66 490.64 0Q489.17 0.49 487.63 0.49L487.63 0.49Q485.07 0.49 483.73-1.34 482.39-3.17 482.39-6.52L482.39-6.52 482.39-22.92 478.36-22.92 478.36-26.42 482.39-26.42 482.39-32.81ZM526.22-11.55L526.22-14.43Q526.22-20.19 529.02-23.55 531.81-26.9 536.4-26.9 540.99-26.9 543.79-23.63 546.58-20.36 546.66-14.72L546.66-14.72 546.66-11.94Q546.66-6.2 543.87-2.86 541.09 0.49 536.45 0.49L536.45 0.49Q531.86 0.49 529.09-2.76 526.32-6.01 526.22-11.55L526.22-11.55ZM530.54-14.45L530.54-11.94Q530.54-7.86 532.14-5.53 533.74-3.2 536.45-3.2L536.45-3.2Q542.17-3.2 542.34-11.45L542.34-11.45 542.34-14.43Q542.34-18.48 540.72-20.84 539.11-23.19 536.4-23.19L536.4-23.19Q533.74-23.19 532.14-20.84 530.54-18.48 530.54-14.45L530.54-14.45ZM568.39 0L564.07 0 564.07-22.92 560.63-22.92 560.63-26.42 564.07-26.42 564.07-29.47Q564.14-33.5 566.11-35.75 568.08-38.01 571.66-38.01L571.66-38.01Q572.96-38.01 574.28-37.6L574.28-37.6 574.06-33.94Q573.13-34.16 572.08-34.16L572.08-34.16Q568.39-34.16 568.39-28.91L568.39-28.91 568.39-26.42 572.91-26.42 572.91-22.92 568.39-22.92 568.39 0ZM610.69-32.81L614.99-32.81 614.99-26.42 618.97-26.42 618.97-22.92 614.99-22.92 614.99-6.54Q614.99-4.98 615.5-4.17 616.01-3.37 617.26-3.37L617.26-3.37Q618.11-3.37 618.99-3.66L618.99-3.66 618.94 0Q617.48 0.49 615.94 0.49L615.94 0.49Q613.38 0.49 612.03-1.34 610.69-3.17 610.69-6.52L610.69-6.52 610.69-22.92 606.66-22.92 606.66-26.42 610.69-26.42 610.69-32.81ZM638.36-37.5L638.36-23.71Q640.83-26.9 644.66-26.9L644.66-26.9Q651.67-26.9 651.76-17.55L651.76-17.55 651.76 0 647.47 0 647.47-17.36Q647.47-20.46 646.43-21.77 645.39-23.07 643.32-23.07L643.32-23.07Q641.7-23.07 640.42-22 639.14-20.92 638.36-19.19L638.36-19.19 638.36 0 634.04 0 634.04-37.5 638.36-37.5ZM677.58 0.49L677.58 0.49Q672.64 0.49 670.01-2.45 667.37-5.4 667.32-11.08L667.32-11.08 667.32-14.28Q667.32-20.19 669.9-23.55 672.47-26.9 677.09-26.9L677.09-26.9Q681.73-26.9 684.02-23.95 686.32-21 686.36-14.75L686.36-14.75 686.36-11.91 671.62-11.91 671.62-11.3Q671.62-7.06 673.22-5.13 674.82-3.2 677.82-3.2L677.82-3.2Q679.72-3.2 681.18-3.92 682.63-4.64 683.9-6.2L683.9-6.2 686.15-3.47Q683.34 0.49 677.58 0.49ZM677.09-23.19L677.09-23.19Q674.4-23.19 673.11-21.35 671.81-19.51 671.64-15.63L671.64-15.63 682.04-15.63 682.04-16.21Q681.87-19.97 680.69-21.58 679.5-23.19 677.09-23.19ZM745.73-17.7L745.73-4.42 744.95-3.44Q741.58 0.49 735.08 0.49L735.08 0.49Q729.32 0.49 726.04-3.33 722.76-7.15 722.68-14.14L722.68-14.14 722.68-21.12Q722.68-28.59 725.67-32.31 728.66-36.04 734.62-36.04L734.62-36.04Q739.7-36.04 742.57-33.2 745.44-30.37 745.73-25.12L745.73-25.12 741.26-25.12Q740.99-28.44 739.42-30.31 737.84-32.18 734.65-32.18L734.65-32.18Q730.81-32.18 729.03-29.68 727.25-27.17 727.17-21.68L727.17-21.68 727.17-14.43Q727.17-9.06 729.23-6.19 731.28-3.32 735.11-3.32L735.11-3.32Q738.72-3.32 740.6-5.08L740.6-5.08 741.26-5.69 741.26-13.89 734.77-13.89 734.77-17.7 745.73-17.7ZM761.46-11.55L761.46-14.43Q761.46-20.19 764.25-23.55 767.05-26.9 771.64-26.9 776.23-26.9 779.02-23.63 781.82-20.36 781.89-14.72L781.89-14.72 781.89-11.94Q781.89-6.2 779.11-2.86 776.33 0.49 771.69 0.49L771.69 0.49Q767.1 0.49 764.33-2.76 761.56-6.01 761.46-11.55L761.46-11.55ZM765.78-14.45L765.78-11.94Q765.78-7.86 767.38-5.53 768.98-3.2 771.69-3.2L771.69-3.2Q777.4-3.2 777.57-11.45L777.57-11.45 777.57-14.43Q777.57-18.48 775.96-20.84 774.35-23.19 771.64-23.19L771.64-23.19Q768.98-23.19 767.38-20.84 765.78-18.48 765.78-14.45L765.78-14.45ZM810.25-6.76L810.25-6.76Q810.25-8.15 809.2-9.16 808.15-10.16 805.14-11.5L805.14-11.5Q801.65-12.94 800.22-13.96 798.79-14.99 798.09-16.3 797.38-17.6 797.38-19.41L797.38-19.41Q797.38-22.63 799.73-24.77 802.09-26.9 805.75-26.9L805.75-26.9Q809.61-26.9 811.95-24.66 814.3-22.41 814.3-18.9L814.3-18.9 810-18.9Q810-20.68 808.8-21.94 807.61-23.19 805.75-23.19L805.75-23.19Q803.85-23.19 802.76-22.2 801.68-21.22 801.68-19.56L801.68-19.56Q801.68-18.24 802.47-17.43 803.26-16.63 806.29-15.31L806.29-15.31Q811.1-13.43 812.83-11.63 814.57-9.84 814.57-7.08L814.57-7.08Q814.57-3.64 812.2-1.57 809.83 0.49 805.85 0.49L805.85 0.49Q801.72 0.49 799.16-1.88 796.6-4.25 796.6-7.89L796.6-7.89 800.94-7.89Q801.02-5.69 802.29-4.44 803.56-3.2 805.85-3.2L805.85-3.2Q808-3.2 809.12-4.16 810.25-5.13 810.25-6.76ZM849.22-14.82L849.22-11.94Q849.22-5.66 846.96-2.59 844.7 0.49 840.57 0.49L840.57 0.49Q836.59 0.49 834.45-2.51L834.45-2.51 834.45 10.16 830.15 10.16 830.15-26.42 834.06-26.42 834.28-23.49Q836.45-26.9 840.5-26.9L840.5-26.9Q844.85-26.9 847-23.88 849.14-20.85 849.22-14.82L849.22-14.82ZM844.92-11.77L844.92-14.4Q844.92-18.85 843.55-20.96 842.19-23.07 839.16-23.07L839.16-23.07Q836.06-23.07 834.45-19.97L834.45-19.97 834.45-6.23Q836.03-3.2 839.21-3.2L839.21-3.2Q842.14-3.2 843.52-5.31 844.9-7.42 844.92-11.77L844.92-11.77ZM874.17 0.49L874.17 0.49Q869.24 0.49 866.61-2.45 863.97-5.4 863.92-11.08L863.92-11.08 863.92-14.28Q863.92-20.19 866.5-23.55 869.07-26.9 873.69-26.9L873.69-26.9Q878.33-26.9 880.62-23.95 882.92-21 882.96-14.75L882.96-14.75 882.96-11.91 868.22-11.91 868.22-11.3Q868.22-7.06 869.82-5.13 871.42-3.2 874.42-3.2L874.42-3.2Q876.32-3.2 877.78-3.92 879.23-4.64 880.5-6.2L880.5-6.2 882.74-3.47Q879.94 0.49 874.17 0.49ZM873.69-23.19L873.69-23.19Q871-23.19 869.71-21.35 868.41-19.51 868.24-15.63L868.24-15.63 878.64-15.63 878.64-16.21Q878.47-19.97 877.29-21.58 876.1-23.19 873.69-23.19ZM902.75-37.5L902.75 0 898.42 0 898.42-37.5 902.75-37.5Z" opacity="1" transform="matrix(1,0,0,1,0,0)" fill="#ffffff" class="undefined-text-1" data-fill-palette-color="secondary" id="text-1"></path></svg></g></svg></g></svg></g></svg></g><g transform="matrix(1,0,0,1,68.30980244906091,0)"><svg viewBox="0 0 87.38039510187818 87.38039510187818" height="87.38039510187818" width="87.38039510187818"><g><svg></svg></g><g id="icon-0"><svg viewBox="0 0 87.38039510187818 87.38039510187818" height="87.38039510187818" width="87.38039510187818"><g><path d="M0 43.69c0-24.129 19.561-43.69 43.69-43.69 24.129 0 43.69 19.561 43.69 43.69 0 24.129-19.561 43.69-43.69 43.69-24.129 0-43.69-19.561-43.69-43.69zM43.69 85.623c23.159 0 41.933-18.774 41.933-41.933 0-23.159-18.774-41.933-41.933-41.933-23.159 0-41.933 18.774-41.933 41.933 0 23.159 18.774 41.933 41.933 41.933z" data-fill-palette-color="accent" fill="#ffffff" stroke="transparent"></path><ellipse rx="43.253295575429696" ry="43.253295575429696" cx="43.69019755093909" cy="43.69019755093909" fill="#ffffff" stroke="transparent" stroke-width="0" fill-opacity="1" data-fill-palette-color="accent"></ellipse></g><g transform="matrix(1,0,0,1,28.48943729232038,18.933258267019713)"><svg viewBox="0 0 30.401520517237422 49.51387856783875" height="49.51387856783875" width="30.401520517237422"><g><svg xmlns="http://www.w3.org/2000/svg" xmlns:xlink="http://www.w3.org/1999/xlink" version="1.1" x="0" y="0" viewBox="0 0 55.2599983215332 90" enable-background="new 0 0 55.26 90" xml:space="preserve" width="30.401520517237422" height="49.51387856783875" class="icon-a-0" data-fill-palette-color="quaternary" id="a-0"><path d="M41.774 89.727C41.454 89.912 41.104 90 40.757 90c-0.705 0-1.391-0.365-1.768-1.02L28.825 71.377v16.522c0 1.125-0.913 2.039-2.041 2.039-1.125 0-2.04-0.914-2.04-2.039V71.376L14.582 88.98C14.204 89.635 13.519 90 12.813 90c-0.346 0-0.698-0.088-1.019-0.273-0.976-0.563-1.309-1.811-0.745-2.786l13.065-22.632h-3.143c-0.937-0.001-1.701-0.765-1.702-1.702v-4.463c0.001-0.938 0.766-1.702 1.702-1.702H32.6c0.937 0 1.7 0.765 1.7 1.702v4.463c0 0.938-0.764 1.701-1.7 1.702h-3.145L42.521 86.94C43.085 87.916 42.751 89.163 41.774 89.727zM36.171 27.63c-0.008 4.707-3.833 8.533-8.541 8.541-4.708-0.008-8.532-3.834-8.541-8.541 0.009-4.708 3.833-8.532 8.541-8.542C32.338 19.098 36.163 22.921 36.171 27.63zM32.566 27.631c0-2.723-2.214-4.937-4.936-4.937-2.721 0-4.936 2.213-4.936 4.937 0 2.721 2.214 4.935 4.936 4.935C30.353 32.566 32.566 30.353 32.566 27.631zM55.26 18.573v18.114c0 0.673-0.544 1.137-1.207 1.03l-14.23-2.276c-0.664-0.107-1.561 0.229-1.994 0.745l-1.643 1.643c-0.515 0.432-0.851 1.329-0.744 1.994l2.277 14.229c0.105 0.665-0.356 1.208-1.03 1.208H18.573c-0.673 0-1.136-0.543-1.03-1.208l2.278-14.229c0.106-0.666-0.229-1.562-0.746-1.994l-1.642-1.643c-0.433-0.516-1.33-0.852-1.994-0.745L1.208 37.718C0.544 37.825 0 37.361 0 36.688V18.573c0-0.673 0.544-1.136 1.208-1.029l14.231 2.277c0.664 0.105 1.561-0.229 1.994-0.746l1.642-1.644c0.517-0.431 0.852-1.329 0.746-1.993l-2.278-14.23C17.437 0.545 17.9 0 18.573 0h18.116c0.674 0 1.136 0.545 1.03 1.208l-2.277 14.23c-0.106 0.664 0.229 1.562 0.744 1.993l1.643 1.644c0.434 0.516 1.33 0.851 1.994 0.746l14.23-2.277C54.716 17.437 55.26 17.9 55.26 18.573zM38.596 27.63c0-6.057-4.909-10.966-10.965-10.966-6.057 0-10.965 4.91-10.966 10.966 0.001 6.057 4.91 10.966 10.966 10.966C33.687 38.596 38.596 33.687 38.596 27.63z" fill="#ffffff" data-fill-palette-color="quaternary"></path></svg></g></svg></g></svg></g></svg></g><g></g></svg></g></svg></g></svg></g><defs></defs></svg><rect width="320" height="360" fill="none" stroke="none" visibility="hidden"></rect></g></svg></g></svg>